<svg width="160px" height="30px" viewBox="0 0 160 30" version="1.1" xmlns="http://www.w3.org/2000/svg" xmlns:xlink="http://www.w3.org/1999/xlink">
    <title>logo-blue-pink</title>
    <g id="Page-1" stroke="none" stroke-width="1" fill="none" fill-rule="evenodd">
        <g id="logo-blue-pink" transform="translate(-0.000000, 0.000000)">
            <g id="flex" transform="translate(108.385306, 4.063908)" fill="#D700A4">
                <path d="M2.98893913,9.40924624 L0.166052174,9.40924624 L0.730629565,6.57307957 L3.55336348,6.57307957 C3.75277913,5.57207957 3.96290783,4.67133333 4.18436174,3.87053333 C4.40550957,3.06973333 4.72674783,2.38041183 5.14746435,1.8018 C5.56787478,1.2234957 6.13245217,0.778811828 6.84134957,0.46697957 C7.54963478,0.155916129 8.47952696,1.59872116e-14 9.63087304,1.59872116e-14 C10.1400487,1.59872116e-14 10.6273391,0.0281387097 11.0922852,0.0833397849 C11.5572313,0.139155914 12.0106991,0.189129032 12.453913,0.233412903 L11.8229148,3.1363129 C11.4462748,3.04774516 10.9594435,3.00284624 10.3616557,3.00284624 C9.71917913,3.00284624 9.22683826,3.09202903 8.88371478,3.26993333 C8.54013217,3.44814516 8.27460174,3.69847204 8.08666435,4.02060645 C7.89826783,4.34335591 7.75976348,4.72130645 7.67161043,5.15507312 C7.58269217,5.58883978 7.47234783,6.06166237 7.33950609,6.57307957 L10.6605496,6.57307957 L10.0958191,9.40924624 L6.7749287,9.40924624 L3.78598957,23.8236462 L-2.30926389e-14,23.8236462 L2.98893913,9.40924624" id="Fill-9"></path>
                <polyline id="Fill-10" points="14.1471861 1.59872116e-14 17.9331757 1.59872116e-14 13.0180313 23.8236462 9.23219478 23.8236462 14.1471861 1.59872116e-14"></polyline>
                <path d="M29.4239861,13.6803333 C29.4457183,13.5691624 29.4571965,13.4749054 29.4571965,13.3966398 C29.4571965,13.3189892 29.4571965,13.2354957 29.4571965,13.1463129 L29.4571965,12.6124462 C29.4571965,11.5896118 29.1361113,10.7497559 28.4940939,10.0933398 C27.8516174,9.43753871 26.9664139,9.10894624 25.8372591,9.10894624 C24.4200765,9.10894624 23.2909217,9.53748495 22.4497948,10.3936398 C21.6080557,11.2502559 20.9995548,12.3455129 20.6232209,13.6803333 L29.4239861,13.6803333 Z M32.1804522,18.4851333 C31.5826643,20.509429 30.5750261,21.9834054 29.1583026,22.9061398 C27.74112,23.829028 25.9919861,24.2909333 23.9110539,24.2909333 C22.8259757,24.2909333 21.824,24.118257 20.905433,23.7736731 C19.986407,23.4290892 19.1951722,22.9285892 18.5309635,22.2721731 C17.8667548,21.616372 17.3462539,20.8263355 16.970073,19.9031398 C16.59328,18.9802516 16.4054957,17.9292785 16.4054957,16.7500667 C16.4054957,15.4154 16.6156243,14.1139462 17.0364939,12.8461667 C17.4567513,11.5782333 18.0712209,10.4437667 18.8797496,9.4426129 C19.687513,8.4416129 20.6839791,7.63558495 21.8685357,7.02360645 C23.0527861,6.41208925 24.4092104,6.1061 25.9368904,6.1061 C27.4645704,6.1061 28.7042226,6.36196237 29.6564591,6.87337957 C30.6082365,7.38541183 31.3501913,8.03044946 31.8815583,8.80864624 C32.4129252,9.58761183 32.7724243,10.4437667 32.9609739,11.3778796 C33.1487583,12.3121462 33.2431861,13.202129 33.2431861,14.0472129 C33.2431861,14.4700624 33.2208417,14.8595452 33.1767652,15.2150462 C33.1322296,15.5713161 33.088,15.8939118 33.0439235,16.1826796 L20.2579061,16.1826796 C20.2355617,16.2943118 20.219033,16.3944118 20.208167,16.4829796 C20.1966887,16.5721624 20.1914852,16.6613452 20.1914852,16.7500667 L20.1914852,17.2837796 C20.1914852,18.4851333 20.5070609,19.4527667 21.1380591,20.1866796 C21.7690574,20.9209 22.8151096,21.2877796 24.2763687,21.2877796 C25.2944139,21.2877796 26.1693635,21.0543667 26.899993,20.5872333 C27.6306226,20.1201 28.1287791,19.4194 28.3944626,18.4851333 L32.1804522,18.4851333 L32.1804522,18.4851333 Z" id="Fill-11"></path>
                <polyline id="Fill-12" points="34.8706504 6.57307957 38.9226296 6.57307957 41.2810296 12.0787333 45.7300035 6.57307957 50.1146991 6.57307957 42.8084035 14.9147462 47.1915687 23.8236462 43.0731687 23.8236462 40.2847165 17.4839796 35.0367026 23.8236462 30.6859826 23.8236462 38.6563339 14.6479667 34.8706504 6.57307957"></polyline>
            </g>
            <g id="indeed" fill="#d700a4">
                <path d="M96.5486171,22.2264455 C96.1758032,23.0287831 95.6808606,23.6241551 95.0758797,24.0111777 C94.4555945,24.3988154 93.7803667,24.5913272 93.0368815,24.5913272 L93.024638,24.5913272 C92.2802345,24.5913272 91.6048536,24.3843616 90.9847215,23.9833465 C90.3655075,23.5691078 89.8705649,22.959282 89.5121371,22.1569444 C89.1546275,21.340153 88.9752606,20.3580659 88.9752606,19.1956143 C88.9752606,18.1028175 89.1403945,17.1348767 89.4847423,16.318239 C89.8157754,15.4885315 90.2963319,14.8508745 90.9033023,14.4089584 C91.5225162,13.9515121 92.2119771,13.7448541 92.9961719,13.7448541 L93.0368815,13.7448541 C93.7670519,13.7448541 94.4412084,13.9658121 95.0614936,14.3945046 C95.6808606,14.8233508 96.1758032,15.4474767 96.5486171,16.2630379 C96.9202067,17.0795218 97.0995736,18.0617627 97.0995736,19.1956143 C97.0995736,20.413267 96.9202067,21.4241078 96.5486171,22.2264455 Z M100.830927,4.82242289 C100.472652,4.40695407 99.9919423,4.19814332 99.3441093,4.19814332 C98.6964293,4.19814332 98.2014867,4.42002397 97.8562206,4.8774702 C97.5130971,5.3195401 97.3337302,5.98349063 97.3337302,6.85532934 L97.3337302,13.1645508 C96.5353023,12.2785659 95.7084084,11.642139 94.869118,11.2134465 C94.3444849,10.9514336 93.7254241,10.7579992 93.0368815,10.6597444 C92.6366728,10.6045433 92.2242206,10.5759433 91.7710589,10.5759433 C89.6638032,10.5759433 87.9570623,11.3238487 86.6482345,12.8179681 C85.3537928,14.3128562 84.7061128,16.3878939 84.7061128,19.0566121 C84.7061128,20.3171648 84.8720119,21.4928401 85.2010554,22.5724132 C85.5330067,23.6507562 85.9994832,24.5913272 86.6340015,25.3944336 C87.2672954,26.1975401 88.0250136,26.8044444 88.8927702,27.2485132 C89.7594554,27.6759756 90.6966936,27.8970874 91.7161162,27.8970874 C92.183358,27.8970874 92.623358,27.8572627 93.0368815,27.7743842 C93.3128189,27.7314842 93.5734519,27.6629057 93.8365336,27.5789508 C94.4831423,27.3590691 95.0890415,27.0409326 95.639998,26.6397638 C96.2042693,26.2241412 96.7696119,25.6848928 97.3337302,25.0341659 L97.3337302,25.4497885 C97.3337302,26.2385949 97.5262589,26.8330444 97.8978484,27.2617369 C98.2841302,27.6759756 98.7656049,27.8970874 99.3441093,27.8970874 C99.9366936,27.8970874 100.417556,27.6904293 100.790523,27.2895681 C101.161041,26.8740992 101.354641,26.2662724 101.354641,25.4497885 L101.354641,6.63452504 C101.354641,5.84464225 101.174356,5.2366616 100.830927,4.82242289 L100.830927,4.82242289 Z" id="Fill-1"></path>
                <path d="M73.4826693,14.5890154 C74.1580502,13.85541 75.0258067,13.4962186 76.0859389,13.4962186 L76.1001719,13.4962186 C77.2011667,13.4962186 78.096318,13.85541 78.7715458,14.5745616 C79.4469267,15.2950971 79.845911,16.3878939 79.9418693,17.854182 L72.2442415,17.854182 C72.3809093,16.4154175 72.795351,15.3218519 73.4826693,14.5890154 Z M83.3972849,22.4065025 C83.1366519,22.1710906 82.7782241,22.0463885 82.3371528,22.0463885 C81.9378623,22.0463885 81.6352954,22.1437207 81.4155249,22.3225476 C80.8775771,22.8210487 80.4508919,23.2209874 80.1198589,23.5125229 C79.7911215,23.7900659 79.4183075,24.066225 79.0190171,24.3282379 C78.6341128,24.5779498 78.2204362,24.7724605 77.8081371,24.8828627 C77.3803806,25.0066422 76.9272189,25.0618433 76.4169719,25.0618433 C76.3069336,25.0618433 76.1958241,25.0618433 76.1001719,25.0476971 C75.4656536,25.0066422 74.8750589,24.8265853 74.3383354,24.4939949 C73.7036641,24.1203498 73.2087215,23.5691078 72.8218275,22.8485724 C72.4500849,22.1015896 72.2586275,21.2440508 72.2442415,20.27611 L80.5477684,20.27611 C81.6617719,20.27611 82.5295284,20.1092767 83.1366519,19.8045175 C83.7567841,19.4728498 84.059351,18.7813756 84.059351,17.7159487 C84.059351,16.5536508 83.7567841,15.4190304 83.1641997,14.2994788 C82.5714623,13.1913057 81.6905441,12.2785659 80.4928258,11.5737143 C79.307351,10.8685551 77.8897093,10.5216648 76.2233719,10.5216648 L76.1001719,10.5216648 C74.8750589,10.5348885 73.7445267,10.7436992 72.7402554,11.1305681 C71.693591,11.5458831 70.8114484,12.1404863 70.0811249,12.9008465 C69.3804919,13.675353 68.8295354,14.602239 68.4577928,15.6818121 C68.0860502,16.7624616 67.8926032,17.9372143 67.8926032,19.1956143 C67.8926032,21.8806315 68.6504745,23.9833465 70.1656049,25.5458906 C71.5967145,27.0275551 73.5806171,27.8020616 76.1001719,27.8840175 C76.237758,27.8970874 76.3885058,27.8970874 76.5412432,27.8970874 C77.7257997,27.8970874 78.7848606,27.7459379 79.7075597,27.4285702 C80.6301058,27.1095111 81.3878241,26.7214121 81.9947945,26.2518186 C82.5987041,25.767925 83.0541615,25.2706541 83.3558102,24.7580068 C83.6591423,24.2464358 83.8108084,23.7900659 83.8108084,23.4153444 C83.8108084,22.9866519 83.6732223,22.6419143 83.3972849,22.4065025 L83.3972849,22.4065025 Z" id="Fill-2"></path>
                <path d="M56.4769371,14.5890154 C57.1520119,13.85541 58.0188502,13.4962186 59.0800536,13.4962186 L59.0939806,13.4962186 C60.1951284,13.4962186 61.0902797,13.85541 61.7655075,14.5745616 C62.4531319,15.2950971 62.8389545,16.3878939 62.9489928,17.854182 L55.2372849,17.854182 C55.3901754,16.4154175 55.8036989,15.3218519 56.4769371,14.5890154 Z M65.3453475,22.0463885 C64.9319771,22.0463885 64.6295632,22.1437207 64.4096397,22.3225476 C63.8859249,22.8210487 63.4459249,23.2209874 63.1148919,23.5125229 C62.7841649,23.7900659 62.4266554,24.066225 62.0264467,24.3282379 C61.6280745,24.5779498 61.2278658,24.7724605 60.8011806,24.8828627 C60.3878102,25.0066422 59.919038,25.0618433 59.4100154,25.0618433 C59.3008954,25.0618433 59.1908571,25.0618433 59.0939806,25.0476971 C58.4597684,25.0066422 57.8681023,24.8265853 57.3303075,24.4939949 C56.7120119,24.1203498 56.2017649,23.5691078 55.8310936,22.8485724 C55.4440467,22.1015896 55.251671,21.2440508 55.2372849,20.27611 L63.555198,20.27611 C64.6568049,20.27611 65.5245615,20.1092767 66.1439284,19.8045175 C66.7498275,19.4728498 67.0533128,18.7813756 67.0533128,17.7159487 C67.0533128,16.5536508 66.7642136,15.4190304 66.1713232,14.2994788 C65.5796571,13.1913057 64.6845058,12.2785659 63.5010206,11.5737143 C62.3144745,10.8685551 60.8847423,10.5216648 59.232791,10.5216648 L59.0939806,10.5216648 C57.8681023,10.5348885 56.7528745,10.7436992 55.7342171,11.1305681 C54.6863284,11.5458831 53.8054102,12.1404863 53.0894728,12.9008465 C52.3735354,13.675353 51.8225789,14.602239 51.4519075,15.6818121 C51.0789406,16.7624616 50.8864119,17.9372143 50.8864119,19.1956143 C50.8864119,21.8806315 51.6585162,23.9833465 53.1730345,25.5458906 C54.6049093,27.0275551 56.5745789,27.8020616 59.0939806,27.8840175 C59.2459528,27.8970874 59.3824675,27.8970874 59.5342867,27.8970874 C60.7320049,27.8970874 61.7798936,27.7459379 62.7006032,27.4285702 C63.6231493,27.1095111 64.3819389,26.7214121 64.9867667,26.2518186 C65.6061336,25.767925 66.0472049,25.2706541 66.3505371,24.7580068 C66.6531041,24.2464358 66.8058415,23.7900659 66.8058415,23.4153444 C66.8058415,22.9866519 66.6674902,22.6419143 66.4056328,22.4065025 C66.1307667,22.1710906 65.7709615,22.0463885 65.3453475,22.0463885 L65.3453475,22.0463885 Z" id="Fill-3"></path>
                <path d="M8.84613363,25.0618433 L8.84613363,14.879782 C9.13446755,14.9063831 9.41040494,14.9203756 9.69950407,14.9203756 C11.0765893,14.9203756 12.3721023,14.5471917 13.4730971,13.8830874 L13.4730971,25.0618433 C13.4730971,26.0165605 13.2531736,26.7214121 12.8252641,27.1931584 C12.3994971,27.6629057 11.8344606,27.8970874 11.145918,27.8970874 C10.4705371,27.8970874 9.93396668,27.6629057 9.49289537,27.1790121 C9.06621015,26.7083422 8.84613363,26.0022605 8.84613363,25.0618433" id="Fill-4"></path>
                <path d="M44.5793371,22.2264455 C44.2077475,23.0287831 43.7115806,23.6241551 43.093591,24.0111777 C42.4866206,24.3988154 41.798078,24.5913272 41.0677545,24.5913272 L41.0545928,24.5913272 C40.3120258,24.5913272 39.6358797,24.3843616 39.0165128,23.9833465 C38.3830658,23.5691078 37.901438,22.959282 37.5428571,22.1569444 C37.1853475,21.340153 37.0061336,20.3580659 37.0061336,19.1956143 C37.0061336,18.1028175 37.1721858,17.1348767 37.5019945,16.318239 C37.8463423,15.4885315 38.3138902,14.8508745 38.9340223,14.4089584 C39.5402275,13.9515121 40.2417789,13.7448541 41.0138832,13.7448541 L41.0677545,13.7448541 C41.798078,13.7448541 42.4722345,13.9658121 43.0792049,14.3945046 C43.7115806,14.8233508 44.2077475,15.4474767 44.5793371,16.2630379 C44.9368467,17.0795218 45.1302936,18.0617627 45.1302936,19.1956143 C45.1302936,20.413267 44.9368467,21.4241078 44.5793371,22.2264455 Z M48.848638,4.82242289 C48.4900571,4.40695407 47.9952675,4.19814332 47.3749823,4.19814332 C46.7273023,4.19814332 46.2312884,4.42002397 45.8869406,4.8774702 C45.5305023,5.3195401 45.3635319,5.98349063 45.3635319,6.85532934 L45.3635319,13.1645508 C44.5652571,12.2785659 43.7401997,11.642139 42.8989197,11.2134465 C42.3632675,10.9514336 41.7561441,10.7579992 41.0677545,10.6597444 C40.6695354,10.6045433 40.2561649,10.5759433 39.8017789,10.5759433 C37.6946762,10.5759433 35.9733962,11.3238487 34.6789545,12.8179681 C33.3845128,14.3128562 32.7368328,16.3878939 32.7368328,19.0566121 C32.7368328,20.3171648 32.903038,21.4928401 33.2186136,22.5724132 C33.5496467,23.6507562 34.0312745,24.5913272 34.6656397,25.3944336 C35.2983215,26.1975401 36.0560397,26.8044444 36.9247145,27.2485132 C37.792318,27.6759756 38.7272606,27.8970874 39.7468362,27.8970874 C40.2009162,27.8970874 40.6419875,27.8572627 41.0677545,27.7743842 C41.3436919,27.7314842 41.6055493,27.6629057 41.8672536,27.5789508 C42.5138623,27.3590691 43.1199145,27.0409326 43.6710241,26.6397638 C44.2352954,26.2241412 44.7870171,25.6848928 45.3635319,25.0341659 L45.3635319,25.4497885 C45.3635319,26.2385949 45.5580502,26.8330444 45.9287215,27.2617369 C46.3006171,27.6759756 46.796478,27.8970874 47.3749823,27.8970874 C47.9381823,27.8970874 48.4352675,27.6904293 48.8077754,27.2895681 C49.1785997,26.8740992 49.3578136,26.2662724 49.3578136,25.4497885 L49.3578136,6.63452504 C49.3578136,5.84464225 49.1939041,5.2366616 48.848638,4.82242289 L48.848638,4.82242289 Z" id="Fill-5"></path>
                <path d="M20.2619528,12.9008465 L20.2619528,13.4276401 C21.0185997,12.4310992 21.8314136,11.7116401 22.7124849,11.241124 C23.6073302,10.7846003 24.6269058,10.5482659 25.7828432,10.5482659 C26.8991423,10.5482659 27.9044849,10.7979777 28.7852502,11.2829476 C29.6672397,11.7659186 30.3141545,12.4587767 30.7540015,13.3579853 C31.0443249,13.8830874 31.2223145,14.4509358 31.3058762,15.059839 C31.3885197,15.6541347 31.4292293,16.4278724 31.4292293,17.3692121 L31.4292293,25.2983315 C31.4292293,26.1557164 31.2223145,26.8044444 30.8364919,27.2340595 C30.4514345,27.6759756 29.9411875,27.8970874 29.3219736,27.8970874 C28.6894449,27.8970874 28.179198,27.6759756 27.7800606,27.220067 C27.3798519,26.7769207 27.1883945,26.128039 27.1883945,25.2983315 L27.1883945,18.1989197 C27.1883945,16.7890627 26.9947945,15.7094896 26.6089719,14.9626605 C26.2239145,14.2164465 25.4388015,13.8421863 24.282711,13.8421863 C23.5249928,13.8421863 22.8364502,14.0774444 22.216318,14.5195143 C21.5972571,14.9769605 21.128638,15.5980111 20.8393858,16.4012713 C20.6327771,17.0376982 20.5359006,18.2132197 20.5359006,19.9713508 L20.5359006,25.2983315 C20.5359006,26.1690939 20.3311284,26.8044444 19.9309197,27.2485132 C19.5317823,27.6759756 19.0223006,27.8970874 18.3890067,27.8970874 C17.7699458,27.8970874 17.2728606,27.6759756 16.8734171,27.220067 C16.4742797,26.7769207 16.2808328,26.128039 16.2808328,25.2983315 L16.2808328,12.9703476 C16.2808328,12.1546326 16.4600467,11.5458831 16.8186275,11.1580917 C17.1628223,10.7579992 17.6444502,10.5482659 18.2648884,10.5482659 C18.636478,10.5482659 18.9664397,10.6312982 19.2699249,10.8124315 C19.5734102,10.9912584 19.8198102,11.2551164 20.0000954,11.6143078 C20.178391,11.9734992 20.2619528,12.4032681 20.2619528,12.9008465" id="Fill-6"></path>
                <path d="M8.87261015,0.657893859 C11.7377371,-0.379855603 15.0015423,-0.324808292 17.4520745,1.80558418 C17.9073789,2.23427665 18.4297162,2.77352504 18.636478,3.41010569 C18.8839493,4.21259708 17.7699458,3.32630461 17.6172084,3.21697881 C16.8186275,2.69080031 16.0200467,2.24873042 15.1250484,1.94397128 C10.3055562,0.449851923 5.7470032,3.14824655 2.91064842,7.33937665 C1.72746929,9.19360999 0.955364937,11.1437917 0.321917981,13.2884842 C0.253507546,13.5237422 0.198564937,13.8288089 0.0742936331,14.0345444 C-0.0499776712,14.2719551 0.0191979809,13.4001164 0.0191979809,13.3712089 C0.115003198,12.4861465 0.294217111,11.6287616 0.515364937,10.7713767 C1.82312146,6.20460246 4.71533711,2.40034117 8.87261015,0.657893859" id="Fill-7"></path>
                <path d="M12.6053406,11.987953 C10.8840606,12.8730154 8.77588668,12.1824638 7.90920146,10.4532401 C7.02721189,8.7229401 7.71682581,6.60669386 9.43795276,5.73485515 C11.1590797,4.84979278 13.2672536,5.54049816 14.1337858,7.27079816 C15.0148571,9.00002182 14.3264675,11.1161143 12.6053406,11.987953" id="Fill-8"></path>
            </g>
        </g>
    </g>
</svg>