<?xml version="1.0" standalone="no"?>
<!DOCTYPE svg PUBLIC "-//W3C//DTD SVG 20010904//EN"
 "http://www.w3.org/TR/2001/REC-SVG-20010904/DTD/svg10.dtd">
<svg version="1.0" xmlns="http://www.w3.org/2000/svg"
 width="200.000000pt" height="200.000000pt" viewBox="0 0 200.000000 200.000000"
 preserveAspectRatio="xMidYMid meet">

<g transform="translate(0.000000,200.000000) scale(0.100000,-0.100000)"
fill="#000000" stroke="none">
<path d="M845 1733 c-513 -110 -758 -701 -473 -1140 297 -456 959 -456 1256 0
287 442 38 1034 -480 1141 -95 20 -210 19 -303 -1z m280 -138 c178 -37 336
-159 415 -317 44 -90 70 -192 70 -278 0 -223 -135 -443 -332 -540 -136 -67
-264 -84 -403 -55 -327 68 -539 393 -470 720 68 327 393 539 720 470z"/>
<path d="M893 1456 c-263 -67 -416 -330 -342 -590 l11 -39 169 169 169 169
100 -100 100 -100 147 147 147 147 -36 44 c-47 56 -127 111 -203 138 -74 26
-192 33 -262 15z"/>
<path d="M1267 1002 l-167 -167 -100 100 -100 100 -145 -145 c-80 -80 -145
-148 -145 -152 0 -5 27 -35 59 -67 184 -184 478 -184 661 -1 106 106 156 259
132 401 -7 39 -16 78 -20 85 -5 10 -55 -34 -175 -154z"/>
</g>
</svg>
