<?xml version="1.0" encoding="utf-8"?><svg version="1.1" id="Layer_1" xmlns="http://www.w3.org/2000/svg" xmlns:xlink="http://www.w3.org/1999/xlink" x="0px" y="0px" viewBox="0 0 122.88 88.76" style="enable-background:new 0 0 122.88 88.76" xml:space="preserve"><g><path d="M23.12,2.26C35.41,0.67,47.94-0.04,60.66,0c12.74,0.04,25.65,0.84,38.7,2.25c5.86,0.63,10.79,3.06,14.51,6.78 c3.8,3.8,6.31,8.94,7.23,14.87c1.13,7.26,1.74,14.35,1.77,21.26c0.03,6.95-0.54,13.7-1.78,20.21c-1.14,5.94-3.69,11.16-7.52,14.99 c-3.65,3.65-8.44,6.03-14.24,6.58c-25.38,2.4-50.76,2.4-76.14,0c-5.9-0.56-10.91-2.99-14.66-6.75c-3.82-3.82-6.32-9-7.12-14.96 C0.5,58.38,0.01,51.5,0,44.6c-0.01-6.9,0.44-13.79,1.41-20.66c0.83-5.9,3.32-10.95,7.08-14.72C12.24,5.49,17.23,3.03,23.12,2.26 L23.12,2.26z M30.14,47.59l4.71-0.3c0.1,0.76,0.31,1.34,0.62,1.74c0.51,0.65,1.24,0.97,2.19,0.97c0.71,0,1.25-0.16,1.63-0.5 c0.38-0.33,0.58-0.72,0.58-1.15c0-0.41-0.18-0.79-0.54-1.12c-0.36-0.33-1.21-0.63-2.53-0.93c-2.17-0.49-3.72-1.14-4.65-1.95 c-0.93-0.81-1.4-1.84-1.4-3.09c0-0.82,0.24-1.6,0.72-2.33c0.48-0.74,1.19-1.31,2.15-1.73c0.96-0.42,2.27-0.63,3.94-0.63 c2.05,0,3.61,0.38,4.69,1.15c1.08,0.76,1.71,1.98,1.92,3.64l-4.66,0.28c-0.12-0.73-0.38-1.26-0.78-1.59 c-0.4-0.33-0.95-0.5-1.65-0.5c-0.57,0-1.01,0.12-1.3,0.37c-0.29,0.24-0.44,0.54-0.44,0.89c0,0.25,0.12,0.48,0.35,0.69 c0.23,0.21,0.78,0.41,1.65,0.59c2.17,0.47,3.72,0.94,4.65,1.42c0.94,0.48,1.62,1.07,2.05,1.78c0.43,0.71,0.64,1.5,0.64,2.38 c0,1.03-0.28,1.98-0.85,2.85c-0.57,0.87-1.36,1.53-2.39,1.98c-1.02,0.45-2.3,0.67-3.86,0.67c-2.73,0-4.62-0.53-5.67-1.58 C30.87,50.54,30.28,49.21,30.14,47.59L30.14,47.59z M45.84,44.89c0-2.62,0.73-4.66,2.19-6.11c1.46-1.46,3.49-2.19,6.1-2.19 c2.67,0,4.73,0.72,6.17,2.15c1.45,1.43,2.17,3.44,2.17,6.02c0,1.87-0.31,3.41-0.94,4.61c-0.63,1.2-1.55,2.13-2.74,2.8 c-1.19,0.67-2.68,1-4.46,1c-1.81,0-3.3-0.29-4.49-0.86c-1.18-0.58-2.15-1.49-2.88-2.74C46.21,48.32,45.84,46.76,45.84,44.89 L45.84,44.89z M50.79,44.9c0,1.62,0.3,2.78,0.9,3.49c0.6,0.71,1.43,1.06,2.46,1.06c1.06,0,1.89-0.35,2.48-1.04 c0.59-0.69,0.88-1.93,0.88-3.73c0-1.51-0.31-2.61-0.91-3.3c-0.61-0.7-1.44-1.05-2.48-1.05c-1,0-1.81,0.35-2.41,1.06 C51.09,42.09,50.79,43.27,50.79,44.9L50.79,44.9z M73.53,50.25h-5.62l-0.81,2.64h-5.06l6.04-16.04h5.43l6.01,16.04h-5.19 L73.53,50.25L73.53,50.25z M72.48,46.78l-1.75-5.77l-1.76,5.77H72.48L72.48,46.78z M80.36,36.86h8.25c1.8,0,3.14,0.43,4.04,1.28 c0.89,0.86,1.34,2.07,1.34,3.65c0,1.62-0.49,2.89-1.46,3.8c-0.97,0.92-2.46,1.37-4.47,1.37h-2.72v5.94h-4.97V36.86L80.36,36.86z M85.33,43.71h1.22c0.96,0,1.64-0.17,2.03-0.5c0.39-0.33,0.58-0.76,0.58-1.28c0-0.5-0.17-0.93-0.51-1.28 c-0.34-0.35-0.97-0.53-1.9-0.53h-1.42V43.71L85.33,43.71z M60.57,16.47c13,0,24.82,2.99,33.41,7.82c9,5.07,14.57,12.2,14.57,20.21 c0,8.01-5.57,15.15-14.57,20.21c-8.59,4.83-20.4,7.82-33.41,7.82s-24.82-2.99-33.41-7.82c-9-5.07-14.57-12.2-14.57-20.21 c0-8.01,5.57-15.15,14.57-20.21C35.75,19.46,47.56,16.47,60.57,16.47L60.57,16.47z M91.65,28.43c-7.92-4.45-18.9-7.21-31.08-7.21 s-23.17,2.75-31.08,7.21c-7.5,4.22-12.14,9.91-12.14,16.07c0,6.16,4.64,11.85,12.14,16.07c7.92,4.45,18.9,7.21,31.08,7.21 s23.17-2.75,31.08-7.21c7.5-4.22,12.14-9.91,12.14-16.07C103.79,38.34,99.15,32.65,91.65,28.43L91.65,28.43z M60.66,4.58 C48.13,4.53,35.79,5.23,23.69,6.8c-4.83,0.63-8.91,2.63-11.95,5.67c-3.07,3.07-5.1,7.22-5.79,12.1C5.01,31.27,4.56,37.94,4.58,44.6 c0.01,6.67,0.49,13.35,1.38,20.05c0.65,4.92,2.7,9.19,5.82,12.31c3.02,3.02,7.07,4.98,11.85,5.44c25.09,2.38,50.19,2.38,75.28,0 c4.66-0.44,8.5-2.35,11.42-5.27c3.17-3.17,5.3-7.56,6.27-12.61c1.2-6.25,1.74-12.7,1.71-19.33c-0.03-6.67-0.63-13.54-1.72-20.58 c-0.77-4.94-2.84-9.2-5.96-12.32c-3-3-6.99-4.96-11.75-5.47C85.93,5.41,73.18,4.62,60.66,4.58L60.66,4.58z"/></g></svg>