<?xml version="1.0" encoding="utf-8"?>
<!-- Generator: Adobe Illustrator 25.4.1, SVG Export Plug-In . SVG Version: 6.00 Build 0)  -->
<svg version="1.0" id="katman_1" xmlns="http://www.w3.org/2000/svg" xmlns:xlink="http://www.w3.org/1999/xlink" x="0px" y="0px"
	 viewBox="0 0 560.1 400.2" style="enable-background:new 0 0 560.1 400.2;" xml:space="preserve">
<style type="text/css">
	.st0{fill:#FFFFFF;}
	.st1{clip-path:url(#SVGID_00000177446817432616838400000015404685275527498400_);}
	.st2{fill:#CB3349;}
	.st3{fill:#F4EDAE;}
	.st4{fill:#E5CBAD;}
	.st5{fill:#656D68;}
	.st6{fill:#E5CAA3;}
	.st7{fill:#C7B39B;}
	.st8{fill:#EBD699;}
	.st9{fill:#2E3137;}
	.st10{fill:#ECF6FA;}
	.st11{opacity:0.8;fill:#EBD699;enable-background:new    ;}
	.st12{opacity:0.75;fill:#EBD699;enable-background:new    ;}
	.st13{fill:#14182D;}
</style>
<g>
	<path class="st0" d="M91.2,66c0-29.7,24.1-53.8,53.8-53.8h269.2c29.7,0,53.8,24.1,53.8,53.8v269.2c0,29.7-24.1,53.8-53.8,53.8H145
		c-29.7,0-53.8-24.1-53.8-53.8V66z"/>
</g>
<g>
	<defs>
		<rect id="SVGID_1_" x="157.8" y="46" width="221.9" height="221.9"/>
	</defs>
	<clipPath id="SVGID_00000153686533453818322280000009808149029682388357_">
		<use xlink:href="#SVGID_1_"  style="overflow:visible;"/>
	</clipPath>
	<g style="clip-path:url(#SVGID_00000153686533453818322280000009808149029682388357_);">
		<path class="st2" d="M210.8,143c0,0-34.5,24.5-35.9,33.8l2.6-0.6c0,0,41.3-27.6,74.1-31.1l0.7-4.2L210.8,143L210.8,143z
			 M265,139.5l-27.2,19.5l1.5,1.2c1.1-0.9,48.3-15.5,48.3-15.5l10-6.2C290.9,139.2,265,139.4,265,139.5L265,139.5z M288.6,163
			c19.3,0,48.3-19.1,48.3-19.1l-9.2-1.8c-0.5,0.5-15.1-0.5-15.1-0.5l-6.9-2L289,158.5l-1.4,3.3c1.2-0.5,1,1,1,1V163z M351.7,223.8
			l-5.9,1.7l-27.6-0.6l-17.2-13.5l-20.9,5.3l-24.1-2.1l-13.5,14.9l-25.3,7.6l-12.6-3.9l-0.6-0.6l5.7,14c0,0,12.9,13.9,20,15.5
			c7.2,1.6,20.2,0,29.9-1.6c9.7-1.6,17.5-5,20.6-10.7c1.4-2.3,2.6-4.8,3.6-7.4c0,0,9.2,13.2,17.3,14.7s31.7-6.7,31.7-6.7
			s14.5-4,17-9c2.5-5,9.2-21.5,9.2-21.5L351.7,223.8z M207.1,235.2l-0.4-0.2l-2.2-2L207.1,235.2z"/>
		<path class="st3" d="M375.1,124.3l-0.2-2.2l-0.2-1.6c-2.1-1.7-4.3-3.2-6.6-4.6c-2.6-1.5-5.2-2.9-8-4.1l-8.3-3.6l-4.2-1.6l-4.3-1.6
			l8.9,2l5.7,1.6c-13.4-35.4-45.5-58.5-80.6-58.5c-35.1,0-67.2,23.2-80.6,58.7c1.9-0.6,3.8-1.2,5.7-1.6c3.1-0.8,5.9-1.5,8.9-2
			l-4.3,1.6l-4.2,1.6c-2.8,1.1-5.6,2.3-8.3,3.6c-2.7,1.3-5.4,2.6-8,4.1c-2.3,1.3-4.5,2.9-6.6,4.6c0,0.5-0.2,1.1-0.2,1.6
			c-0.1,0.5-0.2,1.5-0.2,2.2c-0.2,1.5-0.2,3.1-0.2,4.5c0,3,0.2,6.1,0.6,9.1c0.4,3,1,6,1.8,8.9c0.4,1.5,0.8,2.9,1.4,4.3
			c0.3,0.7,0.6,1.4,0.9,2.1l0.5,1l0.2,0.4l0.7,0.3l1.3,0.7l2.6,1.2h0.2l-2.5-9.5c0.5-0.2,5.2-1.4,13.3-2.9l-1.9-0.4
			c-1.9-0.5-3.7-1-5.5-1.7c-0.9-0.4-1.7-0.8-2.6-1.2c-0.8-0.5-1.6-1-2.2-1.7c8.9,2.9,27.3,1.6,43.7,0c30-3.5,60.2-3.5,90.2,0
			c16.4,1.7,34.8,3.1,43.7,0c-0.7,0.7-1.4,1.3-2.2,1.7c-0.8,0.5-1.7,0.9-2.6,1.2c-1.8,0.7-3.6,1.3-5.4,1.7l-0.8,0.2
			c8.9,1.7,14.1,3.1,14.6,3.1l-2.4,9.1l1.4-0.7l1.3-0.7l0.7-0.3l0.2-0.4l0.5-1c0.3-0.7,0.6-1.4,0.8-2.1c0.5-1.4,1-2.8,1.4-4.3
			c0.8-2.9,1.4-5.9,1.8-8.9c0.4-3,0.6-6,0.6-9.1c0-1.5,0-3.1-0.2-4.5L375.1,124.3z"/>
		<path class="st4" d="M287.4,250.4l-3.5,0.4h-2.3h-0.2l2.1-4.9l3.9,4.3V250.4z M289.9,253c3.5,3.6,8.2,5.8,13.2,6.2
			c-7.1,2.9-14.7,4.7-22.4,5.2c-6.2,0.4-12.3-0.3-18.3-2c0.4,0,0.9,0,1.3-0.2c0.5-0.2,11.3-1.5,16.2-8.8h1.6c0.8,0,1.6,0,2.3,0
			c1.8-0.1,3.6-0.4,5.4-0.8l0.6,0.6V253z"/>
		<path class="st5" d="M300.4,143.4l-1.2,1.5c-2.7,3.4-5.6,6.6-8.7,9.7l-12.6-0.2c-7.2,0-14.1,0.2-20.6,0.5
			c10.4-4.4,21.2-7.7,32.3-9.9C293.1,144.3,296.7,143.8,300.4,143.4L300.4,143.4z M246.4,147.6c-3.8,2.7-7.3,5.7-10.6,8.9
			c-9.2,0.9-17.3,2.1-23.9,3.1C222.9,154.5,234.5,150.4,246.4,147.6L246.4,147.6z M359.2,166.8l-3.8,26.5l-18,12.7l-46.9-5.4
			l-7.1-23.5c-0.1-0.3-0.2-0.5-0.5-0.7c-0.2-0.2-0.5-0.3-0.8-0.4c-1.5-0.3-3-0.4-4.5-0.4c-1.5,0-3.1,0.2-4.6,0.4
			c-0.3,0-0.5,0.2-0.8,0.4c-0.2,0.2-0.4,0.4-0.4,0.7L265,200l-46.6,10.5l-18.5-13.1l-3.7-29.6l2.4-1.3l3.9-0.8l3.4,28
			c0,0.2,0.1,0.4,0.2,0.6c0.1,0.2,0.3,0.3,0.4,0.5l12.7,9c0.3,0.2,0.6,0.3,0.9,0.3h0.4l38.4-8.6l0.4-0.2c0.4-0.2,0.6-0.5,0.8-0.9
			l6.9-22.9c7-2.2,14.5-2.2,21.6,0l6.9,22.9c0.1,0.3,0.3,0.5,0.5,0.7c0.2,0.2,0.5,0.3,0.8,0.4l38.4,4.4c0.4,0,0.7-0.1,1-0.3
			l12.7-8.9c0.3-0.3,0.6-0.7,0.6-1.1l3.4-24L359.2,166.8L359.2,166.8z M363.9,150.2l-3.3,12.6c-13.8-3-27.7-5.1-41.8-6.4
			c6.9-2.9,13.4-6.5,19.4-10.8C350.3,147.3,359.2,149.2,363.9,150.2z"/>
		<path class="st6" d="M228.6,189.6c2.6-1.4,5.6-1.2,10.2-1.2h3.1c4.8,0,8.7,0.4,8.7-7.1c-0.1-7.5-3.4-13.7-8.2-13.6
			s-9.2,6.2-9.1,13.8c0,1.5,0.3,3,0.8,4.4c-1.1,0.2-2.2,0.6-3.1,1.3c-0.9,0.7-1.7,1.5-2.3,2.5L228.6,189.6z M286,158.5
			c-1.8,1.5-3.8,2.9-5.8,4.2l-6.8,4.1c-2.7,0.4-5.5,0.9-8.1,1.6h-0.3c-0.2,0.1-0.3,0.2-0.4,0.4c-0.1,0.2-0.2,0.3-0.3,0.5l-6.9,22.9
			l-36.8,8.6l-11.6-8.1l-3.4-27.5c6.6-1.2,15.4-2.6,26-3.9c-1.1,1.4-2.2,2.8-3.3,4.3l-6.2,9.1l9.2-6.2c5-3.2,10.1-6.1,15.4-8.7
			c9.5-0.7,20-1.2,31.3-1.2h8.1L286,158.5z"/>
		<path class="st6" d="M326.3,186.6c0-0.2-1-3.1-5.5-2.7c0.6-1.5,0.8-3.1,0.6-4.7c-0.6-7.5-4.9-13.5-9.7-13.3
			c-4.8,0.2-7.8,6.4-7.6,14c0.2,7.6,4.3,7.5,9,7.3C319.6,187.2,323.1,185.1,326.3,186.6z M349.8,164.9l-3.3,23.4l-11.7,8.2
			l-36.8-4.2l-6.8-22.8c-0.1-0.2-0.2-0.5-0.4-0.7c-0.2-0.2-0.4-0.3-0.7-0.4c-3.2-0.9-6.4-1.5-9.6-1.8h0.9c9.7-1.3,19.3-3.6,28.6-6.9
			C323.3,160.8,336.6,162.5,349.8,164.9L349.8,164.9z"/>
		<path class="st7" d="M228.6,189.6c2.6-1.4,5.6-1.2,10.2-1.2h3.1c4.8,0,8.7,0.4,8.7-7.1c-0.1-7.5-3.4-13.7-8.2-13.6
			s-9.2,6.2-9.1,13.8c0,1.5,0.3,3,0.8,4.4c-1.1,0.2-2.2,0.6-3.1,1.3c-0.9,0.7-1.7,1.5-2.3,2.5L228.6,189.6z M286,158.5
			c-1.8,1.5-3.8,2.9-5.8,4.2l-6.8,4.1c-2.7,0.4-5.5,0.9-8.1,1.6h-0.3c-0.2,0.1-0.3,0.2-0.4,0.4c-0.1,0.2-0.2,0.3-0.3,0.5l-6.9,22.9
			l-36.8,8.6l-11.6-8.1l-3.4-27.5c6.6-1.2,15.4-2.6,26-3.9c-1.1,1.4-2.2,2.8-3.3,4.3l-6.2,9.1l9.2-6.2c5-3.2,10.1-6.1,15.4-8.7
			c9.5-0.7,20-1.2,31.3-1.2h8.1L286,158.5z"/>
		<path class="st7" d="M326.3,186.6c0-0.2-1-3.1-5.5-2.7c0.6-1.5,0.8-3.1,0.6-4.7c-0.6-7.5-4.9-13.5-9.7-13.3
			c-4.8,0.2-7.8,6.4-7.6,14c0.2,7.6,4.3,7.5,9,7.3C319.6,187.2,323.1,185.1,326.3,186.6z M349.8,164.9l-3.3,23.4l-11.7,8.2
			l-36.8-4.2l-6.8-22.8c-0.1-0.2-0.2-0.5-0.4-0.7c-0.2-0.2-0.4-0.3-0.7-0.4c-3.2-0.9-6.4-1.5-9.6-1.8h0.9c9.7-1.3,19.3-3.6,28.6-6.9
			C323.3,160.8,336.6,162.5,349.8,164.9L349.8,164.9z"/>
		<path class="st4" d="M365.8,175.2c0.6,0.5,1,1.7,0.5,7.3c-0.6,6.9-3.5,19.1-5.3,21c-2.9,0.3-5.8,0-8.6-0.7
			c0.4-1.7,0.6-2.6,0.9-4.4l4.4-3.1c0.2-0.1,0.3-0.3,0.4-0.5c0.1-0.2,0.2-0.4,0.2-0.6l3.1-21.8C363,173.4,364.4,174.3,365.8,175.2z
			 M203.2,203.7l0.7,2.4c-3.1,0.8-6.2,1.2-9.4,1c-1.8-1.9-5.2-14.5-5.9-21.3c-0.6-5.4-0.2-6.6,0.4-7.1c1.6-1.1,3.3-2.2,5.1-3.1
			l2.8,22.9c0,0.2,0.1,0.4,0.2,0.6c0.1,0.2,0.3,0.3,0.4,0.5L203.2,203.7L203.2,203.7z M292.4,204l-0.2,1.5
			c-3.8,3.2-8.3,5.2-13.2,5.9c-5.2,0.5-10.4-0.9-14.6-4c0.4,1.7,1.2,3.3,2.5,4.6c-2.3-0.3-4.7-0.4-7-0.4c-0.9,0-1.8,0-2.7,0
			c-5,0.2-12.1,7.9-17.1,15.5l-19,6.1c-5.3-7.6-9.6-15.8-12.7-24.5l-0.5-1.4l2.1,1.5l5.2,3.7l1.8,1.2c0.3,0.2,0.6,0.3,0.9,0.3h0.3
			l48.2-10.8c0.3-0.1,0.5-0.2,0.7-0.4c0.2-0.2,0.3-0.4,0.4-0.7l6.9-22.8c1-0.1,2.1-0.2,3.1-0.2c1,0,2.1,0.1,3.1,0.2l7.1,23.5
			c0.1,0.3,0.3,0.5,0.5,0.7s0.5,0.3,0.8,0.3l3.3,0.4L292.4,204z M347.4,202.7l1.6-1.1l-0.8,3.1c-2,6.4-4.5,12.7-7.6,18.6
			c-0.7,0-1.3,0-2,0c-2.2,0-4.4-0.2-6.9-0.4l-13.3-1.4L305,210.8l-0.6-0.5c-0.5-0.6-1.2-1-1.9-1.3c-0.7-0.3-1.5-0.4-2.2-0.4
			c-4,0.5-7.9,1.4-11.6,2.8c1-0.7,1.9-1.6,2.5-2.7c0.6-1.1,1-2.3,1.1-3.5l0.2-1.5l45.2,5.4c0.4,0,0.7-0.1,1-0.3L347.4,202.7
			L347.4,202.7z"/>
		<path class="st8" d="M314.2,106.8c0.2,6.2-0.4,12.3-1.8,18.3c-0.1,0.3-0.1,0.5,0,0.8l-7.2-0.7c2-4.4,3.1-9,3.4-13.8
			C310.5,110,312.4,108.4,314.2,106.8z M246,111.4c0.3,4.8,1.4,9.4,3.4,13.8l-7.1,0.7c0.1-0.3,0.1-0.5,0-0.8
			c-1.5-6-2.1-12.1-1.8-18.3C241.9,108.2,243.9,109.9,246,111.4z"/>
		<path class="st9" d="M326.3,186.6c-3.1-1.6-6.7,0.4-13.1,0.5c-4.7,0-8.8,0.2-9-7.3c-0.3-7.6,2.8-13.8,7.6-14
			c4.7-0.2,9.2,5.8,9.7,13.4c0.2,1.6,0,3.2-0.6,4.7C325.2,183.4,326.2,186.4,326.3,186.6L326.3,186.6z M311.3,175.6
			c0.5,0,1-0.2,1.3-0.4c0.4-0.3,0.7-0.7,0.9-1.1c0.2-0.5,0.2-0.9,0.1-1.4c-0.1-0.5-0.3-0.9-0.7-1.2c-0.3-0.3-0.8-0.6-1.3-0.7
			c-0.5-0.1-1,0-1.4,0.2c-0.4,0.2-0.8,0.5-1.1,0.9c-0.3,0.4-0.4,0.9-0.4,1.4c0,0.3,0.1,0.6,0.2,0.9c0.1,0.3,0.3,0.6,0.5,0.8
			s0.5,0.4,0.8,0.5C310.7,175.5,311,175.6,311.3,175.6z"/>
		<path class="st10" d="M311.3,175.6c1.3,0,2.4-1.1,2.4-2.5c0-1.4-1.1-2.5-2.4-2.5c-1.3,0-2.4,1.1-2.4,2.5
			C308.8,174.5,309.9,175.6,311.3,175.6z"/>
		<path class="st9" d="M250.4,181.4c0,7.5-3.9,7.1-8.7,7.1h-2.9c-4.6,0-7.6-0.2-10.2,1.2c0.6-1,1.3-1.9,2.3-2.5
			c0.9-0.7,2-1.1,3.1-1.3c-0.6-1.4-0.8-2.9-0.8-4.4c-0.3-7.4,4.3-13.6,9.1-13.6S250.4,173.9,250.4,181.4L250.4,181.4z M243.1,177.4
			c0.3,0,0.6-0.1,0.9-0.2c0.3-0.1,0.6-0.3,0.8-0.6c0.2-0.2,0.4-0.5,0.5-0.8c0.1-0.3,0.2-0.6,0.2-0.9c0-0.3-0.1-0.6-0.2-0.9
			c-0.1-0.3-0.3-0.6-0.5-0.8c-0.2-0.2-0.5-0.4-0.8-0.5c-0.3-0.1-0.6-0.2-0.9-0.2c-0.3,0-0.6,0.1-0.9,0.2c-0.3,0.1-0.6,0.3-0.8,0.6
			c-0.2,0.2-0.4,0.5-0.5,0.8c-0.1,0.3-0.2,0.6-0.2,0.9c0,0.6,0.3,1.3,0.8,1.7C241.8,177.2,242.4,177.4,243.1,177.4L243.1,177.4z"/>
		<path class="st10" d="M243,177.4c1.3,0,2.4-1.1,2.4-2.5s-1.1-2.5-2.4-2.5c-1.3,0-2.4,1.1-2.4,2.5S241.7,177.4,243,177.4z"/>
		<path class="st11" d="M214.1,130.1c0.3-4.6,1-9.1,2.2-13.5c0.8-1.9,5.5-3.1,9.2-4s9.4-2.6,10.6,2.5c0.7,3.8,2.1,7.3,4.2,10.6
			l-1.6-21.2l-25.1,6.2l-1.6,18.6l0.8,1.5L214.1,130.1L214.1,130.1z M340.8,130.1c-0.3-4.6-1-9.1-2.2-13.5c-0.8-1.9-5.5-3.1-9.2-4
			c-3.7-0.9-9.4-2.6-10.6,2.5c-0.7,3.8-2.1,7.3-4.2,10.6l1.5-21.2l25.1,6.2l1.6,18.6l-0.8,1.5L340.8,130.1"/>
		<path class="st12" d="M305.3,66.6c0,0-0.7,50.9-12.3,50.9h-30.8c-11.8,0-12.8-50.9-12.8-50.9l-5.8,17.3v23.7l4.1,3.3l1.8,10.2
			l2.6,5.9h50.5l2.3-4.2l2-7.2l0.3-4.5l5.6-16.1l-7.7-28.5L305.3,66.6z M342.3,114c0,0,2.4,17.6,8.9,20.7l-9-2.7v-18H342.3z
			 M211.9,114c0,0-2.4,17.6-8.8,20.7l9-2.7L211.9,114z"/>
		<path class="st9" d="M344.2,131.9c3.1,0.9,6.1,2.2,8.9,3.7c-1.5-0.6-3-1-4.6-1.4l-4.7-1l-9.4-1.5l-9.5-1l-9.5-0.7
			c-12.7-0.8-25.5-1-38.2-1c-12.7,0-25.5,0.2-38.2,1c-3.1,0.2-6.3,0.4-9.5,0.7c-3.2,0.3-6.3,0.6-9.5,1.1s-6.3,0.9-9.4,1.5
			c-1.6,0.3-3.1,0.7-4.7,1c-1.6,0.4-3.1,0.8-4.6,1.4c2.8-1.6,5.8-2.8,8.9-3.7l0.8-0.2c0,0,0,0,0-0.2c-0.7-7-0.5-14,0.8-20.9
			c0-0.3,0.2-0.5,0.4-0.8c0.2-0.2,0.4-0.4,0.7-0.4l3.1-0.9c0.7-25.3,11-37.3,11.3-37.6c-6.3,11.2-9.4,24-9,36.9l20.1-5.8h0.8h0.2
			h0.2l1.4,1.3c-0.2-6.7,0-25.9,9.2-41.7c-4.6,14.7-6.3,30.2-4.9,45.5c0.8,0.7,1.6,1.2,2.5,1.8c0.2,0.1,0.4,0.3,0.5,0.5
			s0.2,0.4,0.2,0.7c0.2,4.9,1.4,9.7,3.5,14.1c0,0.1,0,0.2,0,0.3c8.2-0.6,16.5-0.8,24.7-0.8c8.1,0,16.5,0.2,24.7,0.8c0,0,0-0.2,0-0.3
			c2.1-4.4,3.3-9.2,3.5-14.1c0-0.2,0.1-0.5,0.2-0.7c0.1-0.2,0.3-0.4,0.5-0.5c0.8-0.6,1.7-1.2,2.5-1.9c1.5-15.1,0.1-30.4-4.1-44.9
			c9,15.9,9.2,35.1,9.2,41.7l1.4-1.3h0.2h0.2h1.1l20.1,5.8c0.5-12.9-2.7-25.7-9-36.9c0.3,0.4,10.6,12.4,11.3,37.6l3.3,0.9
			c0.3,0.1,0.5,0.2,0.7,0.4c0.2,0.2,0.3,0.5,0.4,0.7c1.2,6.9,1.5,13.9,0.8,20.9c0,0,0,0,0,0.2l0.8,0.2L344.2,131.9z M340.5,130.9
			c0.6-6.3,0.4-12.6-0.7-18.8l-22.7-6.5c0.4,6.9-0.3,13.7-1.9,20.4v0.3h0.7c6.4,0.7,12.8,1.7,19.1,3.1c1.9,0.4,3.8,0.9,5.7,1.4
			L340.5,130.9z M312.3,125.1c1.5-6,2.1-12.1,1.8-18.3c-1.8,1.7-3.7,3.2-5.6,4.6c-0.3,4.8-1.4,9.4-3.4,13.8l7.1,0.7
			C312.3,125.6,312.3,125.4,312.3,125.1z M249.4,125.1c-2-4.3-3.1-9-3.4-13.8c-1.9-1.4-3.8-3-5.6-4.6c-0.3,6.2,0.3,12.3,1.8,18.3
			c0.1,0.3,0.1,0.5,0,0.8L249.4,125.1z M239.5,126.1c0-0.1,0-0.2,0-0.3c-1.6-6.7-2.3-13.5-1.9-20.4l-22.8,6.5
			c-1,6.2-1.2,12.5-0.6,18.8c1.9-0.5,3.8-1,5.7-1.4c3.1-0.7,6.2-1.3,9.5-1.8c3.3-0.5,6.4-1,9.6-1.3L239.5,126.1L239.5,126.1z
			 M301.3,67v19h-13.4v-5.3h-3.1v25.7h4.6v14.4h-23.4v-14.4h4.6V80.8h-3.1v5.6H254v-19L301.3,67z M297.2,82v-11h-39.1v11h5.3v-5.6
			h11.1v33.8H270v6.2h15.4v-6.2h-4.5V76.7h11.1v5.6L297.2,82z"/>
		<path class="st2" d="M270,116.8v-6.2h4.6V76.7h-11.1v5.6h-5.3v-11h39.1v11h-5.3v-5.6h-11.1v33.8h4.4v6.2L270,116.8z"/>
		<path class="st5" d="M191.9,150.2l7.8-1.6l-6.9,5.1L191.9,150.2L191.9,150.2z"/>
		<path class="st7" d="M263.3,202.4c0,0,0.6,3.5-4.3,5.1c-4.9,1.5-36.1,10.9-39.6,10.4c-3.5-0.5-12.6-6.6-12.6-6.6l-2.2-7.8
			l13.3,8.4L263.3,202.4L263.3,202.4z M291.2,201.7c0,0-0.4,3.6,4.6,4.9c5,1.3,36.5,9.3,40.1,8.6c3.6-0.7,12.3-7.1,12.3-7.1l1.8-7.9
			l-12.3,7.4L291.2,201.7L291.2,201.7z"/>
		<path class="st7" d="M189.3,195.8c0,0,4.3,8.7,11.3,5.7l5,1.8l-0.5,3.7l-10.4,1.3l-2.8-1.7L189.3,195.8z M365.9,193.4
			c0,0-7.1,9.1-14,6.2l-2.2,1.5l0.5,3.7l10.5,1.3l2.8-1.7l2.5-10.9V193.4z M256.9,261.8c8.8,3.7,18.3,5.2,27.8,4.4
			c9.5-0.8,18.6-3.9,26.7-9.1l-9.2-0.6c0,0-20.3,8.1-36.3,3.6L256.9,261.8L256.9,261.8z"/>
		<path class="st9" d="M282.8,237.9l1.8,2.1c0,0,4,4.8,8.8,9.6c1.5,1.5,3.3,2.8,5.3,3.6c2,0.8,4.1,1.2,6.2,1.2
			c1.6,0,3.1-0.2,4.7-0.6l4.8-1.1l16-4l2.2-0.5c4.3-1,10.4-2.4,13.5-8.8l8-15.5c-2.1,1-4.3,2-5.8,2.8c-3,1.4-6.2,2-9.5,1.9
			c-2.4,0-4.7-0.2-7.3-0.4c-5.2-0.5-14-1.5-14.1-1.5h-0.7l-0.5-0.4c0,0-7.8-6.2-14-11.2l-0.7-0.6c-0.7-0.6-0.7-0.6-1-0.6
			c-2,0-7.8,1.8-20.5,5.8l-0.8,0.2l-0.8-0.3c-6-2-12.2-3.1-18.5-3.1c-0.8,0-1.6,0-2.4,0s-6.6,2.7-13.8,14.2l-0.5,0.7l-0.8,0.2
			c0,0-12.5,4.1-25.6,7.8l-0.8,0.2l-0.8-0.4l-10-4.8c2.6,4,6.2,8.9,9.1,12.8c5.2,6.8,11.8,13.1,24.4,13.1c1.7,0,3.3-0.1,5-0.3
			c12.9-1.5,16.2-2.1,17.9-2.4l1.7-0.3c0,0,10.6-1.4,13.6-8l3.7-8.5l1.1-2.9c0-0.4,0.2-0.7,0.3-1
			C282.2,237.2,282.5,237.5,282.8,237.9L282.8,237.9z M202.6,108.3c-2.8,1.1-5.6,2.3-8.3,3.6c-2.7,1.2-5.4,2.6-8,4.1
			c-2.3,1.3-4.5,2.8-6.6,4.5c0,0.5-0.2,1.1-0.2,1.6l-0.2,2.2c0,1.5-0.2,3.1-0.2,4.5c0,3,0.2,6.1,0.6,9.1c0.4,3,1,6,1.8,8.9
			c0.4,1.4,0.9,2.9,1.4,4.2c0.2,0.7,0.6,1.4,0.8,2.1l0.5,1l0.2,0.4l0.7,0.3l1.3,0.6l2.6,1.2v-0.2l-2.5-9.5c0.5-0.2,5.2-1.4,13.3-2.9
			l-2-0.4c-1.8-0.5-3.7-1-5.4-1.7c-0.9-0.4-1.7-0.8-2.6-1.3c-0.8-0.4-1.6-1-2.3-1.7c8.9,3,27.3,1.6,43.7,0c29.9-3.5,60.2-3.5,90.1,0
			c16.4,1.7,34.8,3.1,43.7,0c-0.7,0.7-1.4,1.3-2.2,1.7c-0.8,0.5-1.7,0.9-2.6,1.2c-1.8,0.7-3.6,1.3-5.5,1.7l-0.8,0.2
			c8.9,1.7,14.1,3.1,14.6,3.1l-2.4,9.1l1.4-0.6l1.4-0.7l0.7-0.3l0.2-0.4l0.5-1c0.3-0.7,0.6-1.3,0.8-2c0.5-1.4,1-2.8,1.4-4.3
			c0.8-2.9,1.4-5.9,1.8-8.9c0.4-3,0.6-6,0.6-9.1c0-1.5-0.1-3.1-0.2-4.6c0-0.7,0-1.5-0.2-2.2c-0.2-0.7,0-1.1-0.2-1.6
			c-2.1-1.7-4.3-3.3-6.6-4.6c-2.5-1.5-5.2-2.8-7.9-4.1c-2.7-1.3-5.5-2.5-8.3-3.6l-4.2-1.6l-4.3-1.6c3.1,0.5,5.9,1.2,8.9,2
			c1.9,0.5,3.8,1.1,5.7,1.6c-13.4-35.4-45.6-58.5-80.6-58.5c-35.1,0-67,23.2-80.4,58.6c1.9-0.6,3.8-1.2,5.7-1.6
			c3.1-0.7,5.9-1.5,8.9-2l-4.3,1.6c-1.4,0.5-2.8,1.1-4.2,1.6L202.6,108.3z M379.5,128.8c0.2,3.3,0.1,6.5-0.3,9.8
			c-0.4,3.3-0.9,6.5-1.8,9.6c-0.4,1.6-1,3.2-1.6,4.7c-0.3,0.8-0.6,1.6-1,2.3l-0.6,1.1L374,157l-0.4,0.7l-0.3,0.5l-0.5,0.3l-1.5,0.7
			l-1.4,0.7l-2.9,1.2l-1.8,0.7l-1.6,6.2l-1.4-0.3v0.7c2.2,1.1,4.4,2.4,6.4,3.8c2.4,2,2.5,5.1,2,11c-0.6,4.8-1.4,9.6-2.6,14.3
			c-2.4,9.3-3.7,10.4-5.3,10.8c-1.1,0.3-2.2,0.4-3.3,0.4c-2.8,0.1-5.5,0-8.2-0.5c-1.5,5-3.3,9.8-5.6,14.5l0.5-0.2
			c4.1-2.2,12-5.7,12.3-5.8l6.2-2.7l-3.2,6.2c0,0-6.9,13.2-11.2,21.8c-4.2,8.6-12,10.3-16.7,11.3l-1.9,0.5c-3.4,1-10.2,2.6-16.2,4.1
			h-0.2c-3.8,2.5-7.9,4.6-12.2,6.2c-15.7,6-33,6-48.6,0l-10.2,1.2c-1.8,0.2-3.7,0.3-5.5,0.3c-14.7,0-22.5-7.5-28.2-14.9
			c-6.2-7.9-13.6-19.6-13.9-20.1l-4.3-6.8l7.3,3.3l16.9,7.8l0.7-0.2c-5.1-7.4-9.1-15.6-11.9-24.2c-3,0.8-6,1.3-9.1,1.3
			c-0.9,0-1.9-0.1-2.8-0.2c-1.6-0.4-3.5-2-6-11c-1.3-4.5-2.3-9.2-2.9-13.9c-0.6-5.7-0.5-8.8,1.8-10.8c2.3-1.6,4.7-3,7.2-4.3
			l-0.2-1.8c-8.7,5-16.9,10.8-24.7,17.2l-10.9,9.7l7.8-12.4c5.5-8.8,12.2-16.8,19.8-23.8l-0.8-0.3l-1.4-0.7l-1.5-0.7l-0.5-0.3
			l-0.3-0.5l-0.4-0.7l-0.3-0.6l-0.6-1.1c-0.4-0.8-0.7-1.5-1-2.3c-0.6-1.5-1.1-3.1-1.6-4.7c-1.7-6.3-2.4-12.9-2.1-19.4
			c0-1.6,0.2-3.3,0.5-4.9c0-0.8,0.2-1.6,0.4-2.4c0.2-0.8,0.4-1.6,0.6-2.5l0.2-0.6l0.4-0.3c2.5-1.9,5.2-3.6,8.1-4.9
			c2.3-1.1,4.7-2.1,7-2.9c6.3-18.3,17.7-34.3,32.8-46.2c15-11.7,33.4-18,52.4-18c19,0,37.4,6.3,52.4,18c15.1,11.9,26.5,28,32.8,46.2
			c2.4,0.9,4.7,1.8,7,2.9c3,1.2,5.8,2.8,8.5,4.7l0.4,0.3l0.2,0.6c0.2,0.8,0.4,1.6,0.6,2.5c0.2,0.8,0.3,1.6,0.4,2.4
			c0.2,1.6,0.4,3.2,0.5,4.9L379.5,128.8z M366.2,182.6c0.5-5.7,0-6.9-0.5-7.3c-1.4-1-2.8-1.8-4.3-2.6l-3.1,21.8
			c0,0.2-0.1,0.4-0.2,0.6c-0.1,0.2-0.3,0.3-0.4,0.5l-4.4,3.1c-0.3,1.8-0.5,2.6-0.9,4.4c2.8,0.7,5.7,0.9,8.6,0.7
			C362.7,201.6,365.6,189.5,366.2,182.6L366.2,182.6z M360.5,162.8l3.3-12.6c-4.8-1.1-13.6-2.9-25.6-4.7c-6.1,4.3-12.6,8-19.4,10.8
			C332.7,157.7,346.7,159.8,360.5,162.8L360.5,162.8z M355.3,193.3l3.8-26.5l-6.3-1.3l-3.4,24c0,0.2-0.1,0.4-0.2,0.6
			c-0.1,0.2-0.3,0.3-0.4,0.5l-12.7,9c-0.3,0.2-0.7,0.3-1,0.2l-38.4-4.4c-0.3,0-0.6-0.2-0.8-0.3c-0.2-0.2-0.4-0.5-0.5-0.7l-6.9-22.9
			c-7-2.2-14.5-2.2-21.6,0l-6.9,22.9c-0.1,0.4-0.4,0.7-0.8,0.9c-0.1,0-0.2,0-0.4,0l-38.2,8.7h-0.3c-0.3,0-0.6-0.1-0.9-0.3l-12.7-9
			c-0.2-0.1-0.3-0.3-0.4-0.5c-0.1-0.2-0.2-0.4-0.2-0.6l-3.4-28l-3.9,0.8l-2.4,1.4l3.7,29.7l18.5,13.1l46.6-10.5l6.9-22.9
			c0.1-0.3,0.2-0.5,0.5-0.7c0.2-0.2,0.5-0.3,0.8-0.4c1.5-0.3,3-0.4,4.6-0.4c1.5,0,3.1,0.2,4.6,0.4c0.3,0,0.6,0.2,0.8,0.4
			s0.4,0.4,0.5,0.7l7.1,23.4l46.9,5.4l18-12.7L355.3,193.3z M346.3,188.3l3.3-23.4c-13.2-2.4-26.4-4.1-39.8-5.1
			c-9.3,3.3-18.8,5.6-28.6,6.9h-0.9c3.3,0.3,6.5,0.9,9.6,1.8c0.2,0.1,0.5,0.2,0.6,0.4c0.2,0.2,0.3,0.4,0.4,0.6l6.8,22.8l36.8,4.2
			L346.3,188.3z M348.9,201.6l-1.6,1.1l-8.7,6.2c-0.3,0.2-0.7,0.3-1.1,0.3l-48.5-5.6c-0.3,0-0.6-0.1-0.8-0.3
			c-0.2-0.2-0.4-0.5-0.5-0.7l-7.1-23.5c-1-0.2-2.1-0.2-3.1-0.2c-1,0-2.1,0.1-3.1,0.2l-6.9,22.8c-0.1,0.3-0.2,0.5-0.4,0.7
			c-0.2,0.2-0.4,0.3-0.7,0.4l-48.2,10.8h-0.3c-0.3,0-0.6-0.1-0.9-0.3l-1.8-1.2l-5.2-3.7l-2.1-1.5c0,0.5,0.3,0.9,0.5,1.4
			c3.1,8.7,7.4,17,12.7,24.5l18.9-5.8c5-7.7,12.1-15.5,17.1-15.7h2.7c2.3,0,4.7,0.1,7,0.4c-1.3-1.2-2.1-2.8-2.5-4.6
			c4.3,3.1,9.5,4.5,14.7,4c4.9-0.6,9.5-2.6,13.3-5.8c-0.1,1.2-0.5,2.4-1.1,3.5c-0.6,1.1-1.5,2-2.5,2.7c3.8-1.4,7.7-2.4,11.6-2.8
			c0.8,0,1.5,0.1,2.2,0.4c0.7,0.3,1.3,0.7,1.9,1.3l0.6,0.5l13.5,10.8l13.3,1.5c2.5,0.2,4.7,0.4,6.9,0.4h2c3.1-6,5.6-12.2,7.6-18.6
			c0.3-1.1,0.6-2.1,0.8-3.1L348.9,201.6z M332.2,143.9l-10.9-0.7l-15.2-0.8c-0.6,0.9-1.2,1.7-1.8,2.5c-4.4,6.1-9.5,11.6-15.2,16.5
			c15-2.6,29.3-8.2,41.9-16.7L332.2,143.9L332.2,143.9z M299.1,144.9l1.2-1.5c-3.6,0.4-7.2,0.9-10.8,1.6
			c-11.1,2.2-21.9,5.5-32.3,9.9c6.8-0.3,13.7-0.5,20.6-0.5c4.3,0,8.6,0.1,12.7,0.2C293.5,151.6,296.4,148.3,299.1,144.9z M303,259.1
			c-5-0.4-9.7-2.6-13.2-6.2l-0.6-0.6c-1.8,0.4-3.6,0.6-5.4,0.8c-0.8,0-1.5,0-2.3,0h-1.6c-4.9,7.3-15.7,8.7-16.2,8.8l-1.3,0.2
			c5.9,1.7,12.1,2.4,18.3,2c7.7-0.5,15.3-2.3,22.4-5.2V259.1z M283.7,250.8c1.2,0,2.3-0.2,3.5-0.4c-1.3-1.4-2.6-2.9-3.9-4.3
			l-2.1,4.8h0.2c0.7,0,1.5,0,2.3,0V250.8z M280,162.8c2-1.2,4-2.6,5.8-4.1h-8.1c-10.4,0-20.9,0.4-31.3,1.2
			c-5.3,2.6-10.4,5.5-15.4,8.7l-9.2,6.2l6.3-9.1c1-1.5,2.1-3.1,3.3-4.3c-10.6,1.2-19.4,2.6-25.9,3.8l3.4,27.6l11.7,8l36.8-8.3
			l6.9-22.9c0.1-0.4,0.4-0.7,0.7-0.9c0.1,0,0.2,0,0.4,0c2.7-0.7,5.4-1.3,8.1-1.6l6.7-4.1L280,162.8z M284.2,141.8h-7.7h-11.3l-7,3.3
			c-6.8,3.6-13.2,8.1-18.8,13.5c10.3-5.5,21.2-10,32.3-13.5C275.9,143.8,280,142.7,284.2,141.8L284.2,141.8z M235.6,156.5
			c3.3-3.3,6.8-6.3,10.6-8.9c-11.9,2.8-23.5,6.9-34.5,12.1C218.3,158.6,226.4,157.5,235.6,156.5L235.6,156.5z M238,145.4
			c4.3-1.2,8.6-2.2,13.1-3.1l-19.3,0.9l-11.2,0.7l-5.5,0.5l-1.6,0.2c-13.5,8.1-25.7,18.3-36.1,30.1
			C195.9,161.6,216.4,151.7,238,145.4L238,145.4z M203.8,206c-0.2-0.8-0.5-1.6-0.7-2.4l-5.7-4c-0.2-0.1-0.3-0.3-0.4-0.5
			c-0.1-0.2-0.2-0.4-0.2-0.6l-2.8-22.9c-1.8,0.9-3.5,2-5.1,3.1c-0.6,0.5-1,1.6-0.4,7.1c0.7,6.7,4.1,19.4,5.9,21.3
			c3.2,0.2,6.4-0.2,9.5-1.1H203.8z M199.6,148.6l-7.8,1.6l0.9,3.5C194.9,151.9,197.2,150.2,199.6,148.6L199.6,148.6z"/>
	</g>
</g>
<path class="st13" d="M202.9,301v-5.6H173v5.6h11.8v35.9h6.6V301H202.9z"/>
<path class="st13" d="M202.5,336.9h6.6v-20.7c2.1-2.1,5-3.5,8.4-3.5h1.4v-6h-0.8c-3.6,0-6.6,1.7-8.6,4.1l-0.4-0.1v-3.4h-6.6V336.9z"
	/>
<path class="st13" d="M235.9,306.7c-8.3,0-14.9,6.8-14.9,15.4c0,8.6,6.3,15.4,14.3,15.4c4,0,7.3-1.5,9.2-3.7l0.4,0.1v3h6.6v-29.6
	h-6.6v2.1l-0.3,0.1C242.6,307.8,239.9,306.7,235.9,306.7z M236.8,331.9c-5,0-9.1-4.3-9.1-9.8c0-5.6,4.1-9.8,9.1-9.8
	c3.3,0,6.1,0.9,8.1,2.5v12.7C243.2,330.7,240.1,331.9,236.8,331.9z"/>
<path class="st13" d="M264,307.3h-7.1l12.3,29.6h6.7l12.3-29.6h-7.2l-7.9,21.6l-0.4,1.6h-0.4l-0.4-1.6L264,307.3z"/>
<path class="st13" d="M293.8,336.9h6.6v-29.6h-6.6V336.9z M293.3,298.4c0,1.7,1.4,3.3,3.8,3.3c2.5,0,3.8-1.7,3.8-3.3
	c0-1.7-1.4-3.4-3.8-3.4C294.7,295,293.3,296.7,293.3,298.4z"/>
<path class="st13" d="M308.7,335.5c3.1,1.2,6.6,2,10.1,2c6,0,11.7-3,11.7-9.3c0-4.9-3.7-7.5-9.7-8.8c-4.1-0.9-5.2-2.1-5.2-3.7
	c0-2.2,2.3-3.3,4.7-3.3c2.7,0,5.4,0.8,8,1.8l1.2-5.3c-2.9-1.2-6.1-2.1-9.5-2.1c-5.8,0-11.1,3-11.1,8.9c0,4.6,3.8,7.3,9.5,8.6
	c4.3,1,5.5,2.2,5.5,4c0,2.5-2.5,3.6-5.4,3.6c-2.8,0-5.7-0.8-8.5-1.8L308.7,335.5z"/>
<path class="st13" d="M342.4,316.2c0-8.5,6.2-15.8,14.2-15.8c3.3,0,6.2,0.5,8.6,1.4l1.4-5.2c-3.3-1.4-6.3-1.7-10-1.7
	c-11.8,0-20.8,9.2-20.8,21.3s9,21.3,20.8,21.3c3.7,0,6.8-0.4,10-1.7l-1.4-5.3c-2.5,1.1-5.4,1.4-8.6,1.4
	C348.5,331.9,342.4,325.2,342.4,316.2z"/>
<path class="st13" d="M372.4,336.9h6.6v-41.5h-6.6V336.9z"/>
</svg>
